<?xml version="1.0" encoding="UTF-8"?>
<svg version="1.1" xmlns="http://www.w3.org/2000/svg" width="512" height="497">
<path d="M0 0 C1.67004504 -0.00463583 3.34008904 -0.00966151 5.01013184 -0.01504517 C9.52952659 -0.02810468 14.04890652 -0.03460244 18.56831717 -0.03905582 C21.40263612 -0.04199934 24.23695113 -0.04610666 27.07126808 -0.05056 C35.96985945 -0.06422311 44.86844169 -0.07389339 53.76704282 -0.07776189 C63.98057248 -0.08222825 74.19396736 -0.09971478 84.4074561 -0.12876248 C92.33827944 -0.15052109 100.26906528 -0.1604738 108.19991809 -0.16180301 C112.91888653 -0.16284172 117.63772811 -0.16854612 122.35666466 -0.18662262 C156.82439537 -0.31094435 191.88315638 0.72589027 221.4465332 21.16113281 C221.4465332 21.82113281 221.4465332 22.48113281 221.4465332 23.16113281 C223.0965332 23.49113281 224.7465332 23.82113281 226.4465332 24.16113281 C226.4465332 24.82113281 226.4465332 25.48113281 226.4465332 26.16113281 C227.16196289 26.40863281 227.87739258 26.65613281 228.61450195 26.91113281 C231.76063027 28.29976876 234.08464283 30.00577227 236.7590332 32.16113281 C237.64204102 32.86238281 238.52504883 33.56363281 239.43481445 34.28613281 C240.43061523 35.21425781 240.43061523 35.21425781 241.4465332 36.16113281 C241.4465332 36.82113281 241.4465332 37.48113281 241.4465332 38.16113281 C242.0859082 38.42925781 242.7252832 38.69738281 243.3840332 38.97363281 C245.4465332 40.16113281 245.4465332 40.16113281 246.4465332 43.16113281 C247.01629883 43.41765625 247.58606445 43.67417969 248.1730957 43.93847656 C251.56865442 45.76461037 253.53200851 48.70829603 255.8215332 51.72363281 C256.30759033 52.35333984 256.79364746 52.98304687 257.29443359 53.63183594 C260.89783196 58.33920041 264.25447625 63.16577096 267.4465332 68.16113281 C268.1684082 69.19238281 268.8902832 70.22363281 269.6340332 71.28613281 C271.62813829 74.44919606 273.01711925 77.72282435 274.4465332 81.16113281 C274.85053345 82.10931885 274.85053345 82.10931885 275.26269531 83.07666016 C283.16290622 101.75072864 287.21668727 119.77528422 287.109375 140.04882812 C287.11782019 141.93253073 287.12835923 143.8162249 287.14079285 145.6999054 C287.16751387 150.74785411 287.16322718 155.79530198 287.15109229 160.84328938 C287.14388437 165.08944431 287.15251199 169.33551101 287.16099769 173.58165908 C287.18084951 183.61620881 287.17549702 193.65051977 287.15332031 203.68505859 C287.1309843 213.9649986 287.14854473 224.2443096 287.1863696 234.52419019 C287.21781438 243.4166985 287.22545595 252.30901432 287.21441585 261.20157123 C287.20799469 266.4833648 287.20960919 271.7647967 287.23373985 277.04654694 C287.3399541 303.03928491 287.38129529 328.32810639 275.4465332 352.16113281 C274.7369043 353.65580078 274.7369043 353.65580078 274.01293945 355.18066406 C270.84101306 361.73048609 267.31924202 368.00199421 263.4465332 374.16113281 C263.05208008 374.7940625 262.65762695 375.42699219 262.2512207 376.07910156 C259.72144579 380.02367652 259.72144579 380.02367652 257.4465332 381.16113281 C257.0443457 382.02738281 257.0443457 382.02738281 256.6340332 382.91113281 C255.06100416 385.8916089 252.85205965 387.8128808 250.4465332 390.16113281 C249.8690332 390.94488281 249.2915332 391.72863281 248.6965332 392.53613281 C245.95770296 395.73143476 242.85234378 398.02929183 239.4699707 400.51269531 C237.22192887 402.17875117 237.22192887 402.17875117 235.4465332 405.16113281 C233.803718 406.19985124 232.13409453 407.19681205 230.4465332 408.16113281 C228.96054256 409.2350867 227.48159282 410.31883555 226.0090332 411.41113281 C220.80894414 415.09648122 215.37544604 417.83686104 209.64575195 420.58300781 C206.50799847 422.07136545 206.50799847 422.07136545 203.8996582 423.71582031 C198.76915571 426.73856859 193.09070553 428.35878183 187.4465332 430.16113281 C186.77915886 430.38208429 186.11178452 430.60303577 185.42418671 430.83068275 C166.01632575 436.99505086 145.62060867 435.91522295 125.50363064 435.8656919 C121.35196163 435.85847637 117.20038261 435.86711661 113.0487206 435.8755973 C103.23608992 435.8954388 93.42370347 435.89010858 83.61108398 435.86791992 C73.56460096 435.84558521 63.51876161 435.8631451 53.47233939 435.90096921 C44.77597095 435.93243216 36.07979931 435.94005021 27.38338113 435.92901546 C22.22061599 435.92260012 17.05822085 435.92417964 11.89550018 435.94833946 C-9.99856976 436.03999649 -30.4964886 435.88072175 -51.5534668 429.16113281 C-52.25457329 428.94105246 -52.95567978 428.7209721 -53.67803192 428.49422264 C-65.17322151 424.81502523 -77.22454864 418.86694527 -86.5534668 411.16113281 C-87.75422852 410.45150391 -87.75422852 410.45150391 -88.97924805 409.72753906 C-92.1498343 407.79824455 -94.92766891 405.50299911 -97.7409668 403.09863281 C-98.30614014 402.61692627 -98.87131348 402.13521973 -99.45361328 401.63891602 C-106.59732901 395.4816511 -113.57717646 389.2476046 -118.5534668 381.16113281 C-119.2134668 380.83113281 -119.8734668 380.50113281 -120.5534668 380.16113281 C-121.59287458 378.51875367 -122.58658247 376.84722666 -123.5534668 375.16113281 C-124.67416828 373.40837693 -125.79933832 371.6584719 -126.9284668 369.91113281 C-138.45591822 351.78269869 -145.74256524 331.65195252 -147.5534668 310.16113281 C-147.6748928 308.84191676 -147.6748928 308.84191676 -147.79877186 307.49604988 C-148.54817022 298.78734174 -148.70217951 290.12461684 -148.69873047 281.39111328 C-148.70173079 279.85354024 -148.70513529 278.31596795 -148.70890808 276.77839661 C-148.71766451 272.63958884 -148.72008266 268.50080182 -148.72072387 264.36198568 C-148.72143925 261.76486215 -148.72358275 259.16774374 -148.72622108 256.57062149 C-148.73544757 247.47774171 -148.73955945 238.38487649 -148.73876953 229.29199219 C-148.73816979 220.86864805 -148.74870817 212.44536815 -148.76451319 204.02204025 C-148.77766863 196.74680374 -148.78295008 189.47158801 -148.78231412 182.19633973 C-148.78206143 177.87047248 -148.78478389 173.54466242 -148.79549217 169.21880722 C-148.87399116 135.1821271 -148.87399116 135.1821271 -146.5534668 119.16113281 C-146.35148933 117.52686844 -146.35148933 117.52686844 -146.14543152 115.85958862 C-144.28072922 101.14515633 -138.67835356 87.05963471 -131.5534668 74.16113281 C-131.19510742 73.49210937 -130.83674805 72.82308594 -130.4675293 72.13378906 C-129.54090723 70.45082163 -128.54647549 68.80580347 -127.5534668 67.16113281 C-127.06491211 66.33355469 -126.57635742 65.50597656 -126.07299805 64.65332031 C-122.45787023 58.71359086 -118.48565707 53.56960694 -113.7331543 48.49707031 C-111.79531742 46.4203204 -109.98656346 44.2873814 -108.1784668 42.09863281 C-103.85918304 37.1379705 -98.73180498 33.18458982 -93.5534668 29.16113281 C-92.79163086 28.56816406 -92.02979492 27.97519531 -91.24487305 27.36425781 C-82.98586516 21.05681133 -73.85205557 16.70662104 -64.5534668 12.16113281 C-63.27149414 11.53271484 -63.27149414 11.53271484 -61.96362305 10.89160156 C-42.56864764 1.82616613 -21.09915257 0.01370203 0 0 Z M-69.5534668 87.16113281 C-69.5534668 87.82113281 -69.5534668 88.48113281 -69.5534668 89.16113281 C-70.1928418 89.42925781 -70.8322168 89.69738281 -71.4909668 89.97363281 C-73.88478366 91.04781033 -73.88478366 91.04781033 -74.5534668 94.16113281 C-75.2134668 94.16113281 -75.8734668 94.16113281 -76.5534668 94.16113281 C-84.47344875 104.17253858 -89.63806696 117.47659501 -89.00268555 130.40332031 C-87.29564364 140.88307321 -84.34108577 150.8420455 -77.5534668 159.16113281 C-76.8934668 160.06863281 -76.2334668 160.97613281 -75.5534668 161.91113281 C-66.83888098 171.71504186 -54.14778867 178.51372835 -41.0222168 179.39941406 C-24.74793154 179.70375601 -11.72615808 175.21554974 0.4465332 164.16113281 C11.25339527 153.16617663 15.4465332 141.47197192 15.4465332 126.16113281 C15.4465332 125.20207031 15.4465332 124.24300781 15.4465332 123.25488281 C15.0405319 114.4243544 11.39759253 106.93461232 7.4465332 99.16113281 C6.7865332 99.16113281 6.1265332 99.16113281 5.4465332 99.16113281 C5.2815332 98.48050781 5.1165332 97.79988281 4.9465332 97.09863281 C2.72083342 92.73997075 -0.79411066 90.2065027 -4.5534668 87.16113281 C-5.3990918 86.43925781 -6.2447168 85.71738281 -7.1159668 84.97363281 C-26.10845383 70.85101425 -51.00889788 73.35134745 -69.5534668 87.16113281 Z M70.4465332 227.16113281 C70.4465332 227.82113281 70.4465332 228.48113281 70.4465332 229.16113281 C69.86516602 229.40992188 69.28379883 229.65871094 68.68481445 229.91503906 C55.36096114 237.33268166 47.70499753 256.83275419 43.6340332 270.72363281 C37.74310781 292.95328572 40.6734837 317.09749663 51.6652832 337.29785156 C55.28755062 343.12048757 59.08781219 348.86168065 63.4465332 354.16113281 C64.1065332 354.16113281 64.7665332 354.16113281 65.4465332 354.16113281 C65.83518555 355.04865234 65.83518555 355.04865234 66.23168945 355.95410156 C73.29017559 368.7773963 93.71788209 377.24053207 107.03417969 381.42871094 C129.16751461 387.73872351 152.96916336 385.05754413 173.19262695 374.12207031 C183.2768614 368.04489661 193.13299172 361.5073778 200.4465332 352.16113281 C201.05110352 351.42121094 201.65567383 350.68128906 202.27856445 349.91894531 C202.91149414 349.13261719 203.54442383 348.34628906 204.1965332 347.53613281 C204.78950195 346.80136719 205.3824707 346.06660156 205.9934082 345.30957031 C207.42001322 343.20034246 208.01877958 341.64885781 208.4465332 339.16113281 C209.1065332 339.16113281 209.7665332 339.16113281 210.4465332 339.16113281 C218.00379372 321.65535919 222.10763049 306.53812222 221.4465332 287.16113281 C221.44008789 286.18917969 221.43364258 285.21722656 221.42700195 284.21582031 C220.91019579 270.16634919 214.47023315 257.06570899 207.4465332 245.16113281 C206.94508789 244.27941406 206.44364258 243.39769531 205.92700195 242.48925781 C204.576239 240.36510287 203.2674668 238.87185201 201.4465332 237.16113281 C200.52181799 236.06369781 199.6054207 234.95921164 198.6965332 233.84863281 C185.51171618 218.43403056 164.71143834 206.85675454 144.5090332 204.34863281 C142.8231357 204.25213363 141.1348545 204.19480304 139.4465332 204.16113281 C138.14973633 204.12246094 136.85293945 204.08378906 135.5168457 204.04394531 C110.90840469 203.53480515 88.97742284 210.48333214 70.4465332 227.16113281 Z " fill="#171715" transform="translate(225.553466796875,61.8388671875)"/>
<path d="M0 0 C6.68318325 4.34129217 12.08796995 9.75790283 17 16 C18.0828125 17.36125 18.0828125 17.36125 19.1875 18.75 C26.27737372 31.46287701 27.73646523 45.21399142 23.91015625 59.11328125 C19.97799688 71.58480817 12.03865677 83.11858458 0.5390625 89.80078125 C-12.52521515 95.97114008 -26.72570605 98.89668576 -40.734375 93.91015625 C-41.48203125 93.60980469 -42.2296875 93.30945313 -43 93 C-43.76828125 92.70996094 -44.5365625 92.41992188 -45.328125 92.12109375 C-50.73929689 89.92165484 -55.74908055 87.05401038 -60 83 C-60 82.34 -60 81.68 -60 81 C-60.59941406 80.73832031 -61.19882812 80.47664063 -61.81640625 80.20703125 C-68.10457617 76.7311019 -71.7328897 68.78805223 -74.078125 62.29296875 C-75.54077525 56.60472758 -75.55311919 50.7796752 -75.625 44.9375 C-75.64804199 43.84969238 -75.67108398 42.76188477 -75.69482422 41.64111328 C-75.60084724 31.74667992 -72.55103913 23.2002721 -67 15 C-66.34 15 -65.68 15 -65 15 C-64.938125 14.443125 -64.87625 13.88625 -64.8125 13.3125 C-63.6391063 9.972841 -61.65553186 8.28499253 -59 6 C-56.6875 5.1875 -56.6875 5.1875 -55 5 C-55 4.34 -55 3.68 -55 3 C-53.12762629 2.03654556 -51.2519701 1.07946898 -49.375 0.125 C-48.33085938 -0.40867187 -47.28671875 -0.94234375 -46.2109375 -1.4921875 C-32.40568275 -7.97494703 -13.41945894 -7.35044634 0 0 Z " fill="#171715" transform="translate(75,5)"/>
</svg>
